# xmcd
# 
# Track frame offsets:
#     150
#     15245
#     24652
#     39537
#     51585
#     64755
#     78125
#     90562
#     106850
#     124225
#     135740
#     151937
#     163515
# 
# Disc length: 2364
# 
# Revision: 1
# Processed by: cddbd v1.5.2PL0 Copyright (c) Steve Scherf et al.
# Submitted via: BonkEnc v1.0.8
# 
DISCID=9b093a0d
DTITLE=Various Artist - Country Love Songs--Women
DYEAR=2004
DGENRE=Country
TTITLE0=Pam Tillis - So Wrong
TTITLE1=Barbara Mandrell - Tonight My Baby's Coming Home
TTITLE2=Rosanne Cash - I Don't Know Why You Don't Want Me
TTITLE3=Tammy Wynette - Stand by Your Man
TTITLE4=Lynn Anderson - Rose Garden
TTITLE5=Tammy Cochran - Love Won't Let Me
TTITLE6=Danni Leigh - Honey I Do
TTITLE7=The Kinleys - Please
TTITLE8=Robinella and The CC String Band - Mornin' Dove
TTITLE9=Connie Smith - ('Til) I Kissed You
TTITLE10=Patty Loveless - Blame It on Your Heart
TTITLE11=Dolly Parton - Why'd You Come in Here Lookin' Like That
TTITLE12=Shelby Lynne - Thinking About You Again
EXTD=
EXTT0=
EXTT1=
EXTT2=
EXTT3=
EXTT4=
EXTT5=
EXTT6=
EXTT7=
EXTT8=
EXTT9=
EXTT10=
EXTT11=
EXTT12=
PLAYORDER=
